<?xml version="1.0" standalone="no"?>
<!DOCTYPE svg PUBLIC "-//W3C//DTD SVG 20010904//EN"
 "http://www.w3.org/TR/2001/REC-SVG-20010904/DTD/svg10.dtd">
<svg version="1.0" xmlns="http://www.w3.org/2000/svg"
 width="242.000000pt" height="242.000000pt" viewBox="0 0 242.000000 242.000000"
 preserveAspectRatio="xMidYMid meet">
<metadata>
Created by potrace 1.14, written by Peter Selinger 2001-2017
</metadata>
<g transform="translate(0.000000,242.000000) scale(0.100000,-0.100000)"
fill="#000000" stroke="none">
<path d="M1157 2412 c-16 -2 -25 -8 -21 -14 4 -6 2 -8 -4 -5 -14 9 -43 -3 -36
-14 3 -5 -1 -7 -8 -4 -18 7 -85 -59 -110 -109 -14 -27 -23 -67 -26 -117 -4
-67 -1 -84 20 -131 98 -213 368 -221 475 -14 36 69 38 176 5 251 -26 58 -85
118 -138 140 -38 16 -109 24 -157 17z m-22 -72 c-3 -5 -12 -10 -18 -10 -7 0
-6 4 3 10 19 12 23 12 15 0z"/>
<path d="M186 1768 c-23 -6 -58 -29 -87 -57 -132 -128 -84 -354 88 -408 106
-33 218 21 269 131 53 115 3 258 -114 324 -31 17 -110 22 -156 10z"/>
<path d="M2121 1770 c-56 -14 -113 -61 -143 -119 -89 -171 43 -380 225 -356
26 4 47 11 47 17 0 5 5 6 10 3 6 -3 10 -1 10 4 0 6 6 10 13 9 6 -2 11 3 9 11
-2 7 3 12 10 9 7 -2 24 6 38 19 21 21 22 23 5 18 -16 -4 -15 -3 2 6 23 12 35
39 52 117 5 26 5 42 -1 42 -5 0 -6 4 -3 10 10 16 -12 79 -41 122 -50 72 -149
110 -233 88z m189 -264 c0 -3 -4 -8 -10 -11 -5 -3 -10 -1 -10 4 0 6 5 11 10
11 6 0 10 -2 10 -4z m74 -8 c-3 -4 -11 -5 -19 -1 -21 7 -19 12 4 10 11 0 18
-5 15 -9z m-15 -42 c-3 -3 -11 5 -18 17 -13 21 -12 21 5 5 10 -10 16 -20 13
-22z m-43 9 c-1 -8 -8 -21 -16 -28 -10 -10 -11 -9 -4 3 5 8 9 18 10 23 3 14 4
17 8 17 2 0 3 -7 2 -15z m28 -41 c3 -8 2 -12 -4 -9 -6 3 -10 10 -10 16 0 14 7
11 14 -7z m-129 -24 c3 -5 1 -10 -4 -10 -6 0 -11 5 -11 10 0 6 2 10 4 10 3 0
8 -4 11 -10z m105 4 c0 -8 -19 -13 -24 -6 -3 5 1 9 9 9 8 0 15 -2 15 -3z"/>
<path d="M1187 1764 c-1 -1 -33 -4 -72 -8 -93 -8 -117 -13 -200 -41 -96 -32
-202 -95 -261 -155 l-49 -50 -1 -92 c-1 -51 -6 -94 -11 -95 -5 -2 -42 -22 -81
-46 -176 -103 -308 -261 -354 -422 -8 -27 -14 -55 -14 -62 1 -6 21 -42 46 -80
68 -103 201 -229 341 -323 127 -85 376 -212 532 -271 76 -29 93 -40 119 -76
l30 -42 32 42 c26 34 48 48 136 84 58 24 114 47 125 50 40 13 282 141 354 187
141 91 266 202 345 306 73 97 79 108 72 155 -8 48 -63 168 -103 223 -69 95
-206 209 -309 257 l-41 19 0 95 0 95 -62 58 c-102 93 -275 168 -427 184 -58 6
-144 10 -147 8z"/>
</g>
</svg>
